<?xml version="1.0" encoding="UTF-8"?>
<svg xmlns="http://www.w3.org/2000/svg" xmlns:xlink="http://www.w3.org/1999/xlink" width="100px" height="102px" viewBox="0 0 100 102" version="1.1">
<g id="surface1">
<path style=" stroke:none;fill-rule:nonzero;fill:rgb(98.039216%,49.411765%,7.843137%);fill-opacity:1;" d="M 50.238281 53.667969 C 49.863281 54.199219 49.546875 54.636719 49.242188 55.078125 C 44.386719 62.203125 39.53125 69.328125 34.679688 76.449219 C 30.164062 83.074219 25.644531 89.695312 21.121094 96.3125 C 20.96875 96.523438 20.734375 96.660156 20.476562 96.6875 C 14.089844 96.632812 7.703125 96.5625 1.320312 96.480469 C 1.25 96.480469 1.175781 96.460938 1.035156 96.4375 C 1.085938 96.304688 1.148438 96.175781 1.214844 96.050781 C 5.671875 89.164062 10.125 82.285156 14.578125 75.402344 C 18.53125 69.304688 22.484375 63.207031 26.441406 57.113281 C 30.824219 50.339844 35.207031 43.5625 39.585938 36.78125 C 40.234375 35.78125 40.90625 34.800781 41.519531 33.78125 C 41.675781 33.507812 41.722656 33.1875 41.652344 32.878906 C 40.472656 29.128906 39.265625 25.386719 38.066406 21.648438 C 37.550781 20.046875 37.011719 18.453125 36.53125 16.839844 C 36.375 16.324219 36.117188 16.164062 35.585938 16.167969 C 31.574219 16.183594 27.585938 16.179688 23.585938 16.179688 C 22.824219 16.179688 22.824219 16.179688 22.824219 15.429688 C 22.824219 10.527344 22.824219 5.625 22.808594 0.722656 C 22.808594 0.175781 22.988281 0.0546875 23.503906 0.0546875 C 31.558594 0.0664062 39.613281 0.0664062 47.671875 0.0546875 C 48.058594 0.00390625 48.425781 0.25 48.523438 0.625 C 52.769531 11.277344 57.019531 21.925781 61.269531 32.570312 C 66.226562 44.980469 71.183594 57.394531 76.140625 69.8125 C 77.679688 73.667969 79.230469 77.515625 80.75 81.378906 C 80.933594 81.851562 81.121094 81.941406 81.597656 81.792969 C 85.820312 80.492188 90.054688 79.226562 94.273438 77.925781 C 94.804688 77.761719 95 77.871094 95.164062 78.394531 C 96.605469 82.90625 98.074219 87.40625 99.53125 91.910156 C 99.582031 92.066406 99.617188 92.222656 99.675781 92.441406 C 99.375 92.550781 99.09375 92.675781 98.800781 92.757812 C 89.203125 95.789062 79.609375 98.820312 70.019531 101.855469 C 69.5625 102 69.425781 101.84375 69.273438 101.460938 C 66.34375 94.0625 63.410156 86.671875 60.464844 79.28125 C 57.589844 72.042969 54.707031 64.804688 51.828125 57.570312 C 51.394531 56.480469 50.96875 55.390625 50.539062 54.304688 C 50.46875 54.117188 50.375 53.953125 50.238281 53.667969 Z M 50.238281 53.667969 "/>
</g>
</svg>
